<svg xmlns="http://www.w3.org/2000/svg" xmlns:xlink="http://www.w3.org/1999/xlink" preserveAspectRatio="xMidYMid" viewBox="0 0 73.41 73.407" id="search">
  <path d="M72.923,68.601 L51.608,47.286 C55.651,42.295 58.084,35.949 58.084,29.041 C58.084,13.025 45.054,-0.005 29.039,-0.005 C13.023,-0.005 -0.006,13.025 -0.006,29.041 C-0.006,45.056 13.024,58.086 29.039,58.086 C35.948,58.086 42.293,55.652 47.285,51.609 L68.600,72.925 C69.197,73.522 70.165,73.522 70.762,72.925 L72.923,70.763 C73.520,70.166 73.520,69.198 72.923,68.601 ZM29.039,51.971 C16.395,51.971 6.109,41.685 6.109,29.041 C6.109,16.396 16.395,6.110 29.039,6.110 C41.684,6.110 51.969,16.396 51.969,29.041 C51.969,41.685 41.684,51.971 29.039,51.971 Z"/>
</svg>
